<?xml version="1.0" encoding="utf-8"?>
<!-- Generator: Adobe Illustrator 15.0.2, SVG Export Plug-In . SVG Version: 6.00 Build 0)  -->
<!DOCTYPE svg PUBLIC "-//W3C//DTD SVG 1.1//EN" "http://www.w3.org/Graphics/SVG/1.1/DTD/svg11.dtd">
<svg version="1.1" id="Layer_1" xmlns="http://www.w3.org/2000/svg" xmlns:xlink="http://www.w3.org/1999/xlink" x="0px" y="0px"
	 width="1190.55px" height="841.89px" viewBox="0 0 1190.55 841.89" enable-background="new 0 0 1190.55 841.89"
	 xml:space="preserve">
<g>
	<path fill="#231F20" d="M87.252,315.125v16.257h-44.84v27.813h44.84v16.411h-44.84v47.152H21.61V315.125H87.252z"/>
	<path fill="#231F20" d="M174.807,315.125v107.633h-20.802V315.125H174.807z"/>
	<path fill="#231F20" d="M277.54,313.738c10.479,0,20.571,2.62,30.279,7.859v18.491c-11.146-6.728-21.033-10.093-29.662-10.093
		c-5.239,0-9.336,1.015-12.289,3.043c-2.954,2.03-4.43,4.738-4.43,8.128c0,4.058,2.747,7.808,8.244,11.249
		c1.541,1.028,7.473,3.904,17.797,8.629c8.834,4.16,15.203,8.783,19.107,13.868c3.903,5.085,5.855,11.198,5.855,18.337
		c0,9.245-3.326,16.707-9.978,22.381c-6.652,5.677-15.268,8.514-25.849,8.514c-6.884,0-12.803-0.759-17.759-2.273
		c-4.957-1.515-10.517-4.122-16.68-7.82v-20.494c11.505,9.554,22.343,14.331,32.513,14.331c5.085,0,9.194-1.104,12.327-3.313
		c3.132-2.208,4.7-5.136,4.7-8.783c0-4.981-2.723-9.04-8.167-12.173c-4.521-2.465-10.351-5.418-17.489-8.86
		c-8.475-3.852-14.806-8.346-18.992-13.483c-4.187-5.136-6.279-11.095-6.279-17.875c0-9.04,3.363-16.243,10.093-21.611
		C257.61,316.422,266.496,313.738,277.54,313.738z"/>
	<path fill="#231F20" d="M398.763,315.125v49.694h0.462l39.448-49.694h23.653l-40.064,50.696l51.929,56.937h-26.658l-48.77-52.854
		v52.854h-20.802V315.125H398.763z"/>
	<path fill="#231F20" d="M587.17,315.125l47.537,107.633h-21.958l-11.172-26.196h-47.845l-10.401,26.196h-21.804l44.378-107.633
		H587.17z M560.05,380.768h34.748l-18.183-42.606L560.05,380.768z"/>
	<path fill="#231F20" d="M733.434,315.125c10.118,0,18.362,2.8,24.731,8.398c6.368,5.599,9.554,12.893,9.554,21.881
		c0,6.113-1.579,11.441-4.738,15.987c-3.159,4.545-7.847,8.128-14.061,10.748c3.44,1.849,6.497,4.367,9.168,7.551
		c2.67,3.185,5.983,8.552,9.938,16.103c6.574,13.047,11.454,22.035,14.639,26.966h-23.19c-1.593-2.363-3.75-6.137-6.472-11.326
		c-5.959-11.453-10.324-19.171-13.098-23.152c-2.773-3.98-5.445-6.805-8.013-8.475c-2.569-1.668-5.522-2.504-8.86-2.504h-7.551
		v45.458H694.68V315.125H733.434z M728.733,361.044c5.444,0,9.72-1.36,12.828-4.083c3.107-2.722,4.661-6.445,4.661-11.172
		c0-4.931-1.541-8.616-4.622-11.056c-3.082-2.439-7.474-3.66-13.175-3.66h-12.944v29.971H728.733z"/>
	<path fill="#231F20" d="M873.302,313.738c10.479,0,20.571,2.62,30.279,7.859v18.491c-11.146-6.728-21.034-10.093-29.663-10.093
		c-5.239,0-9.336,1.015-12.288,3.043c-2.955,2.03-4.431,4.738-4.431,8.128c0,4.058,2.747,7.808,8.244,11.249
		c1.541,1.028,7.474,3.904,17.798,8.629c8.833,4.16,15.203,8.783,19.106,13.868s5.855,11.198,5.855,18.337
		c0,9.245-3.326,16.707-9.977,22.381c-6.653,5.677-15.269,8.514-25.85,8.514c-6.883,0-12.803-0.759-17.759-2.273
		c-4.957-1.515-10.517-4.122-16.681-7.82v-20.494c11.506,9.554,22.344,14.331,32.514,14.331c5.085,0,9.193-1.104,12.327-3.313
		c3.133-2.208,4.7-5.136,4.7-8.783c0-4.981-2.724-9.04-8.167-12.173c-4.521-2.465-10.351-5.418-17.489-8.86
		c-8.476-3.852-14.807-8.346-18.992-13.483c-4.187-5.136-6.279-11.095-6.279-17.875c0-9.04,3.364-16.243,10.094-21.611
		C853.372,316.422,862.258,313.738,873.302,313.738z"/>
	<path fill="#231F20" d="M994.988,315.125v107.633h-20.803V315.125H994.988z"/>
	<path fill="#231F20" d="M1084.776,315.125l63.947,75.12v-75.12h20.341v107.633h-17.875l-64.333-76.353v76.353h-20.34V315.125
		H1084.776z"/>
	<path fill="#231F20" d="M259.28,504.472l30.433,69.11l29.662-69.11h21.804l-47.537,109.02H286.4l-49.078-109.02H259.28z"/>
	<path fill="#231F20" d="M453.157,503.085c11.145,0,21.174,2.3,30.086,6.896c8.911,4.598,16.012,11.224,21.303,19.878
		c5.29,8.655,7.936,18.145,7.936,28.469c0,10.067-2.581,19.403-7.743,28.006c-5.162,8.604-12.25,15.281-21.265,20.031
		c-9.015,4.752-19.172,7.127-30.472,7.127c-11.146,0-21.278-2.414-30.395-7.242c-9.118-4.827-16.218-11.467-21.303-19.916
		c-5.085-8.449-7.627-17.784-7.627-28.006c0-9.862,2.542-19.133,7.627-27.813c5.085-8.68,12.096-15.422,21.034-20.225
		S441.548,503.085,453.157,503.085z M415.174,558.327c0,7.14,1.618,13.56,4.854,19.261s7.743,10.12,13.521,13.252
		c5.779,3.134,12.314,4.7,19.608,4.7c11.042,0,20.121-3.468,27.235-10.401c7.114-6.935,10.671-15.871,10.671-26.812
		c0-7.14-1.606-13.572-4.815-19.301c-3.21-5.727-7.731-10.156-13.56-13.29c-5.83-3.132-12.392-4.699-19.685-4.699
		c-7.294,0-13.856,1.579-19.685,4.738c-5.83,3.158-10.312,7.576-13.444,13.251C416.74,544.703,415.174,551.136,415.174,558.327z"/>
	<path fill="#231F20" d="M600.576,504.472v107.633h-20.803V504.472H600.576z"/>
	<path fill="#231F20" d="M690.827,504.472l35.364,42.452l35.363-42.452h18.568v107.633h-20.802v-75.582h-0.617l-31.126,37.907
		h-2.928l-31.127-37.907h-0.616v75.582h-20.802V504.472H690.827z"/>
	<path fill="#231F20" d="M905.738,504.472l47.537,107.633h-21.958l-11.172-26.195h-47.845l-10.401,26.195h-21.804l44.378-107.633
		H905.738z M878.618,570.114h34.748l-18.183-42.605L878.618,570.114z"/>
</g>
<g>
	<path d="M293.731,183.113v2.253h-15.299v13.296h13.797v2.253h-13.797v17.177h-2.704v-34.98H293.731z"/>
	<path d="M306.021,183.113v34.98h-2.704v-34.98H306.021z"/>
	<path d="M335.613,184.865v2.98c-3.039-1.786-5.651-2.679-7.838-2.679c-2.103,0-3.86,0.638-5.271,1.916
		c-1.411,1.277-2.116,2.859-2.116,4.745c0,1.352,0.417,2.571,1.252,3.656c0.835,1.085,2.579,2.128,5.233,3.13
		s4.591,1.836,5.81,2.504c1.218,0.668,2.253,1.636,3.105,2.905c0.851,1.269,1.277,2.913,1.277,4.933
		c0,2.688-0.985,4.958-2.955,6.811c-1.97,1.853-4.374,2.779-7.211,2.779c-2.905,0-5.893-1.018-8.964-3.055v-3.18
		c3.389,2.487,6.326,3.731,8.814,3.731c2.07,0,3.818-0.672,5.246-2.016c1.427-1.344,2.141-2.993,2.141-4.946
		c0-1.486-0.442-2.826-1.327-4.019c-0.885-1.194-2.678-2.31-5.381-3.348c-2.703-1.038-4.635-1.874-5.796-2.507
		c-1.161-0.634-2.146-1.54-2.957-2.715c-0.81-1.176-1.215-2.69-1.215-4.542c0-2.569,0.985-4.759,2.955-6.569
		c1.969-1.81,4.34-2.715,7.111-2.715C330.246,182.662,332.941,183.396,335.613,184.865z"/>
	<path d="M371.064,183.113l-16.747,17.473l18.349,17.507h-3.442l-18.318-17.478v17.478h-2.704v-34.98h2.704v17.402l16.783-17.402
		H371.064z"/>
	<path d="M394.5,182.862l16.172,35.231h-2.837l-5.534-12.094h-17.107l-5.514,12.094h-2.837l16.171-35.231H394.5z M401.27,203.746
		l-7.537-16.477l-7.512,16.477H401.27z"/>
	<path d="M420.032,183.113h8.964c3.756,0,6.627,0.813,8.614,2.441c1.986,1.627,2.98,3.827,2.98,6.598
		c0,4.04-2.221,6.878-6.661,8.514c1.152,0.551,2.704,2.329,4.657,5.333l7.913,12.094h-3.201l-6.093-9.587
		c-2.036-3.207-3.621-5.206-4.756-6c-1.135-0.793-2.795-1.19-4.981-1.19h-4.731v16.777h-2.704V183.113z M422.736,185.366v13.697
		h5.809c2.955,0,5.212-0.597,6.773-1.791c1.561-1.193,2.341-2.883,2.341-5.07c0-2.153-0.793-3.831-2.379-5.033
		c-1.586-1.202-3.865-1.803-6.836-1.803H422.736z"/>
	<path d="M457.211,183.113v34.98h-2.704v-34.98H457.211z"/>
</g>
<g>
	<path d="M763.557,183.113v2.253h-15.299v13.296h13.797v2.253h-13.797v17.177h-2.704v-34.98H763.557z"/>
	<path d="M775.847,183.113v34.98h-2.704v-34.98H775.847z"/>
	<path d="M820.462,183.113v34.98h-2.226l-26.595-30.574v30.574h-2.704v-34.98h2.291l26.529,30.573v-30.573H820.462z"/>
	<path d="M836.357,183.113v32.727h17.303v2.253h-20.007v-34.98H836.357z"/>
	<path d="M876.645,182.862l16.173,35.231h-2.838l-5.533-12.094h-17.107l-5.513,12.094h-2.838l16.171-35.231H876.645z
		 M883.415,203.746l-7.537-16.477l-7.512,16.477H883.415z"/>
	<path d="M933.652,183.113v34.98h-2.226l-26.595-30.574v30.574h-2.704v-34.98h2.291l26.529,30.573v-30.573H933.652z"/>
	<path d="M946.844,183.113h12.244c6.193,0,10.922,1.627,14.186,4.883c3.263,3.255,4.895,7.462,4.895,12.62
		c0,5.058-1.614,9.235-4.845,12.532s-7.816,4.945-13.76,4.945h-12.72V183.113z M949.548,185.366v30.474h9.865
		c4.524,0,8.293-1.39,11.306-4.169c3.014-2.779,4.52-6.464,4.52-11.055c0-4.491-1.485-8.155-4.457-10.993
		c-2.971-2.838-6.819-4.257-11.543-4.257H949.548z"/>
</g>
<g>
	<path d="M324.423,697.598v2.254h-16.376v13.997h15.95v2.278h-15.95v14.197h16.776v2.254h-19.481v-34.98H324.423z"/>
	<path d="M349.132,712.643l13.303-15.045h3.474l-15.004,17.047l15.881,17.934h-3.479l-14.174-16.006l-14.153,16.006h-3.476
		l15.839-17.913l-15.013-17.067h3.479L349.132,712.643z"/>
	<path d="M398,697.598v34.98h-2.704v-34.98H398z"/>
	<path d="M442.615,697.598v34.98h-2.226l-26.595-30.573v30.573h-2.704v-34.98h2.291l26.53,30.573v-30.573H442.615z"/>
	<path d="M455.807,697.598h12.244c6.193,0,10.921,1.628,14.185,4.883s4.896,7.462,4.896,12.62c0,5.058-1.615,9.235-4.845,12.532
		c-3.23,3.297-7.817,4.945-13.759,4.945h-12.72V697.598z M458.511,699.852v30.473h9.866c4.523,0,8.292-1.39,11.306-4.169
		c3.013-2.779,4.52-6.464,4.52-11.055c0-4.49-1.486-8.154-4.457-10.993c-2.972-2.837-6.819-4.256-11.543-4.256H458.511z"/>
	<path d="M524.686,697.598h2.704v19.08c0,5.226-1.361,9.257-4.082,12.095c-2.721,2.838-6.244,4.257-10.567,4.257
		c-4.307,0-7.821-1.402-10.542-4.207c-2.721-2.805-4.082-6.644-4.082-11.519v-19.706h2.729v19.606c0,4.173,1.105,7.437,3.317,9.79
		s5.071,3.53,8.576,3.53c3.539,0,6.414-1.188,8.626-3.567c2.211-2.379,3.318-5.755,3.318-10.129V697.598z"/>
	<path d="M556.281,699.351v2.979c-3.039-1.786-5.651-2.68-7.838-2.68c-2.103,0-3.86,0.639-5.271,1.916
		c-1.411,1.277-2.116,2.858-2.116,4.745c0,1.352,0.417,2.57,1.252,3.655c0.835,1.086,2.579,2.129,5.233,3.13
		c2.654,1.002,4.591,1.837,5.81,2.505c1.218,0.667,2.253,1.636,3.105,2.904c0.851,1.269,1.277,2.913,1.277,4.933
		c0,2.688-0.985,4.958-2.955,6.811c-1.97,1.854-4.374,2.78-7.211,2.78c-2.905,0-5.893-1.019-8.964-3.056v-3.18
		c3.389,2.487,6.326,3.73,8.814,3.73c2.07,0,3.818-0.671,5.246-2.016c1.427-1.344,2.141-2.992,2.141-4.945
		c0-1.486-0.442-2.826-1.327-4.02c-0.885-1.194-2.678-2.31-5.381-3.348s-4.635-1.874-5.796-2.508s-2.146-1.539-2.957-2.715
		s-1.215-2.69-1.215-4.543c0-2.568,0.985-4.759,2.955-6.568c1.969-1.811,4.34-2.716,7.111-2.716
		C550.914,697.146,553.61,697.882,556.281,699.351z"/>
	<path d="M594.136,697.598v2.254h-13.121v32.727h-2.729v-32.727h-13.121v-2.254H594.136z"/>
	<path d="M603.547,697.598h8.964c3.756,0,6.627,0.813,8.614,2.441c1.986,1.627,2.979,3.827,2.979,6.598
		c0,4.04-2.221,6.878-6.661,8.514c1.152,0.551,2.705,2.329,4.658,5.334l7.912,12.094h-3.201l-6.093-9.587
		c-2.036-3.206-3.622-5.206-4.757-6c-1.135-0.793-2.795-1.189-4.98-1.189h-4.731v16.776h-2.704V697.598z M606.251,699.852v13.696
		h5.81c2.954,0,5.212-0.597,6.772-1.79c1.562-1.193,2.342-2.884,2.342-5.071c0-2.153-0.793-3.831-2.379-5.032
		c-1.586-1.202-3.864-1.803-6.836-1.803H606.251z"/>
	<path d="M640.726,697.598v34.98h-2.704v-34.98H640.726z"/>
	<path d="M667.666,697.347l16.173,35.231h-2.838l-5.533-12.094H658.36l-5.513,12.094h-2.838l16.171-35.231H667.666z M674.437,718.23
		l-7.537-16.477l-7.512,16.477H674.437z"/>
	<path d="M744.049,697.598v34.98h-2.226l-26.595-30.573v30.573h-2.704v-34.98h2.291l26.529,30.573v-30.573H744.049z"/>
	<path d="M771.04,697.347l16.173,35.231h-2.838l-5.533-12.094h-17.107l-5.513,12.094h-2.838l16.171-35.231H771.04z M777.811,718.23
		l-7.537-16.477l-7.512,16.477H777.811z"/>
	<path d="M816.555,697.598v2.254h-13.12v32.727h-2.729v-32.727h-13.121v-2.254H816.555z"/>
	<path d="M851.756,697.598h2.704v19.08c0,5.226-1.36,9.257-4.081,12.095c-2.722,2.838-6.244,4.257-10.567,4.257
		c-4.307,0-7.821-1.402-10.542-4.207s-4.081-6.644-4.081-11.519v-19.706h2.729v19.606c0,4.173,1.105,7.437,3.317,9.79
		s5.07,3.53,8.576,3.53c3.539,0,6.414-1.188,8.626-3.567s3.318-5.755,3.318-10.129V697.598z"/>
	<path d="M866.9,697.598h8.964c3.756,0,6.627,0.813,8.614,2.441c1.986,1.627,2.979,3.827,2.979,6.598
		c0,4.04-2.221,6.878-6.661,8.514c1.152,0.551,2.705,2.329,4.658,5.334l7.912,12.094h-3.201l-6.093-9.587
		c-2.036-3.206-3.622-5.206-4.757-6c-1.135-0.793-2.795-1.189-4.98-1.189h-4.731v16.776H866.9V697.598z M869.604,699.852v13.696
		h5.81c2.954,0,5.212-0.597,6.772-1.79c1.562-1.193,2.342-2.884,2.342-5.071c0-2.153-0.793-3.831-2.379-5.032
		c-1.586-1.202-3.864-1.803-6.836-1.803H869.604z"/>
	<path d="M915.225,697.347l16.173,35.231h-2.838l-5.533-12.094h-17.107l-5.513,12.094h-2.838l16.171-35.231H915.225z
		 M921.995,718.23l-7.537-16.477l-7.512,16.477H921.995z"/>
	<path d="M559.734,786.247v-3.08c2.587-2.12,5.309-3.181,8.163-3.181s5.274,0.973,7.261,2.917c1.986,1.945,2.98,4.32,2.98,7.124
		c0,5.56-4.291,13.222-12.871,22.986h16.276v2.404h-22.21c10.801-10.399,16.201-18.847,16.201-25.34
		c0-2.154-0.751-3.965-2.254-5.434s-3.364-2.204-5.584-2.204c-1.469,0-2.788,0.301-3.956,0.901
		C562.572,783.943,561.237,784.911,559.734,786.247z"/>
	<path d="M601.02,779.986c3.139,0,5.785,1.574,7.938,4.721c2.154,3.146,3.23,7.607,3.23,13.384c0,5.375-1.055,9.682-3.168,12.92
		c-2.111,3.239-4.744,4.858-7.898,4.858c-3.307,0-6.01-1.591-8.114-4.771s-3.155-7.365-3.155-12.558
		c0-6.46,1.13-11.168,3.393-14.122C595.507,781.464,598.1,779.986,601.02,779.986z M600.92,813.415c2.604,0,4.699-1.469,6.285-4.407
		c1.586-2.938,2.379-6.66,2.379-11.168c0-4.407-0.773-8.075-2.316-11.005c-1.545-2.93-3.627-4.395-6.248-4.395
		c-2.471,0-4.516,1.439-6.134,4.319c-1.619,2.88-2.429,6.606-2.429,11.181c0,4.624,0.789,8.359,2.366,11.205
		C596.4,811.992,598.432,813.415,600.92,813.415z"/>
	<path d="M633.066,780.438v34.98h-2.604v-34.98H633.066z"/>
	<path d="M669.544,780.438v2.429h-12.37v11.067c0.952-0.15,1.887-0.226,2.805-0.226c3.489,0,6.293,0.981,8.413,2.942
		c2.12,1.962,3.181,4.595,3.181,7.9c0,3.238-1.077,5.935-3.23,8.088s-4.85,3.23-8.088,3.23c-2.704,0-5.509-0.769-8.413-2.304v-2.98
		c3.255,1.887,6.093,2.83,8.514,2.83c2.504,0,4.565-0.818,6.185-2.454s2.429-3.706,2.429-6.21c0-2.737-0.859-4.879-2.579-6.423
		s-4.006-2.316-6.86-2.316c-1.553,0-3.155,0.251-4.808,0.752v-16.326H669.544z"/>
</g>
<g>
	<g>
		<path fill="none" stroke="#231F20" stroke-width="18.1287" stroke-miterlimit="10" d="M635.95,20.994l-89.759,125.998
			c0,0,15.116-18.027,33.722-18.027s31.396,18.606,51.169,18.606c19.77,0,41.861-22.094,41.861-22.094l-67.364,100.067"/>
		<g>
			<polygon fill="#231F20" points="587.642,203.903 583.907,258.003 632.63,234.188 			"/>
		</g>
	</g>
</g>
</svg>
